<svg width="50" height="50" viewBox="0 0 50 50" fill="none" xmlns="http://www.w3.org/2000/svg">
<path fill-rule="evenodd" clip-rule="evenodd" d="M16.1458 15.625C16.1458 10.735 20.1099 6.77084 25 6.77084C29.89 6.77084 33.8541 10.735 33.8541 15.625C33.8541 20.515 29.89 24.4792 25 24.4792C20.1099 24.4792 16.1458 20.515 16.1458 15.625ZM25 9.89584C21.8358 9.89584 19.2708 12.4609 19.2708 15.625C19.2708 18.7891 21.8358 21.3542 25 21.3542C28.1641 21.3542 30.7291 18.7891 30.7291 15.625C30.7291 12.4609 28.1641 9.89584 25 9.89584Z" fill="#7000FF"/>
<path fill-rule="evenodd" clip-rule="evenodd" d="M16.6666 30.7292C14.0778 30.7292 11.9791 32.8278 11.9791 35.4167V37.8923C11.9791 37.93 12.0064 37.9621 12.0436 37.9682C20.6244 39.3691 29.3755 39.3691 37.9563 37.9682C37.9935 37.9621 38.0208 37.93 38.0208 37.8923V35.4167C38.0208 32.8278 35.9221 30.7292 33.3333 30.7292H32.6231C32.5682 30.7292 32.5137 30.7379 32.4615 30.7549L30.6583 31.3437C26.9816 32.5443 23.0183 32.5443 19.3416 31.3437L17.5384 30.7549C17.4862 30.7379 17.4317 30.7292 17.3768 30.7292H16.6666ZM8.85413 35.4167C8.85413 31.102 12.3519 27.6042 16.6666 27.6042H17.3768C17.7611 27.6042 18.1431 27.665 18.5084 27.7843L20.3116 28.373C23.358 29.3678 26.6419 29.3678 29.6883 28.373L31.4915 27.7843C31.8568 27.665 32.2388 27.6042 32.6231 27.6042H33.3333C37.648 27.6042 41.1458 31.102 41.1458 35.4167V37.8923C41.1458 39.4615 40.0085 40.7995 38.4598 41.0523C29.5456 42.5077 20.4543 42.5077 11.5401 41.0523C9.99138 40.7995 8.85413 39.4615 8.85413 37.8923V35.4167Z" fill="#7000FF"/>
</svg>
