<svg width="28" height="35" viewBox="0 0 28 35" fill="none" xmlns="http://www.w3.org/2000/svg">
<path d="M23.3919 18.4663C23.4255 15.8607 24.8247 13.3953 27.0446 12.0306C25.6442 10.0306 23.2986 8.76252 20.8583 8.68617C18.2554 8.41297 15.7321 10.2437 14.4058 10.2437C13.0537 10.2437 11.0116 8.7133 8.81259 8.75854C5.94625 8.85115 3.2741 10.4808 1.87956 12.9867C-1.11814 18.1768 1.11788 25.8044 3.98942 29.9997C5.42612 32.054 7.1052 34.3487 9.30225 34.2673C11.4522 34.1781 12.2552 32.8963 14.8503 32.8963C17.4214 32.8963 18.1747 34.2673 20.4164 34.2155C22.7234 34.1781 24.1769 32.1521 25.5632 30.0784C26.5954 28.6146 27.3897 26.9968 27.9167 25.285C25.2056 24.1383 23.3951 21.4099 23.3919 18.4663Z" fill="black"/>
<path d="M19.1578 5.92717C20.4157 4.41715 21.0354 2.47627 20.8853 0.516712C18.9636 0.718554 17.1884 1.63702 15.9136 3.08911C14.6669 4.50787 14.0182 6.4146 14.1408 8.29926C16.0632 8.31906 17.9532 7.42549 19.1578 5.92717Z" fill="black"/>
</svg>
