<svg width="37" height="40" viewBox="0 0 37 40" fill="none" xmlns="http://www.w3.org/2000/svg">
<path fill-rule="evenodd" clip-rule="evenodd" d="M4.88899 0.0664787C5.73025 0.0664787 6.5164 0.299596 7.19 0.703526L25.2727 11.2029L17.1914 19.2923L0.835228 2.92009L0.772876 2.85768C1.44626 1.2481 3.05018 0.0664787 4.88899 0.0664787ZM0.4714 3.97082C0.447429 4.15306 0.435059 4.33812 0.435059 4.52516V35.4749C0.435059 35.6619 0.447427 35.8469 0.471392 36.0291L16.4847 19.9998L0.4714 3.97082ZM0.772903 37.1422C1.44639 38.7518 3.05058 39.9335 4.88898 39.9335C5.71214 39.9335 6.48497 39.7107 7.14773 39.3196L7.20037 39.2887L25.3038 28.8276L17.1914 20.7072L0.835232 37.0798L0.772903 37.1422ZM26.2 28.3098L33.7178 23.9656C35.1147 23.2106 36.063 21.7362 36.063 20.036C36.063 18.3481 35.1274 16.881 33.7445 16.1235L33.7287 16.1127L26.1673 11.7223L17.8982 19.9998L26.2 28.3098Z" fill="black"/>
</svg>
